<!-- Created by trang5000, from the Noun Project -->
<svg xmlns="http://www.w3.org/2000/svg" viewBox="2 2 28 28">
  <path
    fill="currentColor"
    d="M16,2C8.28,2,2,8.28,2,16s6.28,14,14,14c7.721,0,14-6.28,14-14S23.721,2,16,2z M3.513,16c0-0.688,0.07-1.357,0.179-2.014  c0.001,0.011,0.006,0.024,0.007,0.036c0.171,1.805,0.983,2.331,2.013,2.996c0.272,0.176,0.568,0.366,0.883,0.601  c0.909,0.676,0.88,1.354,0.84,2.294c-0.015,0.341-0.03,0.693-0.005,1.084c0.053,0.786,0.537,1.259,1.006,1.717l0.192,0.189  c0.549,0.556,0.721,0.925,0.931,1.684c0.188,0.682,0.468,1.232,0.765,1.816l0.239,0.482c0.075,0.158,0.149,0.311,0.249,0.458  C6.512,25.368,3.513,21.032,3.513,16z M16,28.486c-0.892,0-1.76-0.098-2.6-0.275L13.395,28.2c-0.146-0.272-0.32-0.505-0.473-0.708  c-0.388-0.518-0.644-0.858-0.362-1.564c0.137-0.342,0.549-0.811,0.985-1.307c1.012-1.152,2.272-2.585,1.329-3.846  c-0.399-0.533-1.103-0.676-1.783-0.815c-0.562-0.115-1.143-0.233-1.488-0.567c-0.099-0.097-0.195-0.194-0.292-0.293  c-0.433-0.442-0.88-0.899-1.549-1.127c-0.924-0.313-1.603-1.726-1.79-2.629c-0.169-0.812,0.216-1.251,0.704-1.808  c0.261-0.297,0.53-0.604,0.743-0.997c0.127-0.233,0.301-0.367,0.553-0.544c0.3-0.21,0.729-0.29,1.184-0.374  c0.577-0.106,1.173-0.217,1.572-0.624c0.254-0.257,0.375-0.547,0.362-0.861c-0.029-0.714-0.752-1.335-1.332-1.833  c-0.157-0.135-0.299-0.256-0.403-0.362c-0.271-0.275-0.331-0.459-0.3-0.534c0.051-0.122,0.377-0.252,0.88-0.252  c0.548,0,1.111,0.15,1.372,0.366c0.365,0.303,0.685,0.451,0.978,0.451c0.596,0,0.88-0.557,1.155-1.095  c0.09-0.175,0.182-0.356,0.287-0.521c0.114-0.18,0.251-0.345,0.384-0.505c0.47-0.572,1.055-1.283,0.109-2.22  c-0.034-0.034-0.086-0.075-0.127-0.111c2.406,0.018,4.647,0.726,6.548,1.927C22.605,5.472,22.539,5.5,22.402,5.5  c-0.225,0-0.514-0.076-0.797-0.148c-0.287-0.074-0.558-0.145-0.855-0.145c-0.004,0-0.007,0-0.012,0  C20.316,5.233,20,5.369,19.799,5.611c-0.354,0.422-0.279,1.043-0.208,1.643c0.056,0.463,0.112,0.941-0.057,1.189  c-0.144,0.208-0.244,0.433-0.345,0.649c-0.101,0.223-0.195,0.434-0.326,0.61c-0.061,0.08-0.163,0.165-0.273,0.255  c-0.229,0.187-0.484,0.398-0.556,0.728c-0.081,0.388,0.038,0.695,0.133,0.943c0.11,0.286,0.185,0.475,0.022,0.772  c-0.111,0.204-0.287,0.364-0.475,0.533c-0.294,0.267-0.628,0.569-0.73,1.09c-0.178,0.909-0.004,2.257,0.67,3.077  c0.361,0.44,0.832,0.672,1.379,0.672c0.218-0.002,0.438-0.021,0.652-0.039c0.207-0.019,0.412-0.037,0.612-0.037  c0.565,0,0.906,0.168,1.175,0.576c0.428,0.654,0.236,1.283,0.019,2.011c-0.15,0.5-0.308,1.017-0.255,1.567  c0.015,0.153,0.017,0.34,0.02,0.537c0.012,0.793,0.026,1.991,0.98,1.991c0.27,0,0.582-0.106,0.955-0.328  c0.539-0.317,0.728-0.853,0.894-1.325c0.108-0.307,0.21-0.597,0.394-0.824l0.215-0.266c0.531-0.654,0.8-0.982,1.092-2.004  c0.095-0.332,0.271-0.634,0.457-0.953c0.168-0.289,0.343-0.589,0.461-0.924c0.115-0.333,0.135-0.65,0.15-0.958  c0.022-0.388,0.041-0.722,0.25-1.046c0.101-0.158,0.408-0.638,0.717-0.638c0.068,0,0.14,0.021,0.218,0.066  c0.144,0.082,0.296,0.252,0.431,0.44c0.004,0.128,0.02,0.252,0.02,0.38C28.486,22.885,22.885,28.486,16,28.486z"
  />
</svg>
